<?xml version="1.0"?>
<!DOCTYPE svg PUBLIC "-//W3C//DTD SVG 1.1//EN" "http://www.w3.org/Graphics/SVG/1.1/DTD/svg11.dtd">
<svg version="1.1"
     xmlns="http://www.w3.org/2000/svg"
     width="5460" height="5460" >
  <rect width="100%" height="100%" fill="white" />
  <g stroke="black" stroke-width="1">
    <g id="base-top" transform="translate(1820, 0)">
      <line x1="0" x2="1820" y1="0" y2="0" />
      <line x1="0" x2="1820" y1="20" y2="20" stroke-dasharray="100, 50" />
      <line x1="0" x2="1820" y1="40" y2="40" />
    </g>
    <g id="base-right" transform="translate(3640, 1820)">
      <line x1="1780" x2="1780" y1="0" y2="1820" />
      <line x1="1800" x2="1800" y1="0" y2="1800" stroke-dasharray="100, 50" />
      <line x1="1820" x2="1820" y1="0" y2="1820" />
    </g>
    <g id="base-bottom" transform="translate(1820, 3640)">
      <line x1="0" x2="1820" y1="1780" y2="1780" />
      <line x1="0" x2="1820" y1="1800" y2="1800" stroke-dasharray="100, 50" />
      <line x1="0" x2="1820" y1="1820" y2="1820" />
    </g>
    <g id="base-left" transform="translate(0, 1820)">
      <line x1="0" x2="0" y1="0" y2="1820" />
      <line x1="20" x2="20" y1="0" y2="1820" stroke-dasharray="100, 50" />
      <line x1="40" x2="40" y1="0" y2="1820" />
    </g>
    <g id="base-top-left" transform="translate(0, 0)">
      <line x1="0" x2="1820" y1="0" y2="0" />
      <line x1="20" x2="1820" y1="20" y2="20" stroke-dasharray="100, 50" />
      <line x1="40" x2="1820" y1="40" y2="40" />
      <line x1="0" x2="0" y1="0" y2="1820" />
      <line x1="20" x2="20" y1="20" y2="1820" stroke-dasharray="100, 50" />
      <line x1="40" x2="40" y1="40" y2="1820" />
    </g>
    <g id="base-top-right" transform="translate(3640, 0)">
      <line x1="0" x2="1820" y1="0" y2="0" />
      <line x1="0" x2="1800" y1="20" y2="20" stroke-dasharray="100, 50" />
      <line x1="0" x2="1780" y1="40" y2="40" />
      <line x1="1780" x2="1780" y1="40" y2="1820" />
      <line x1="1800" x2="1800" y1="20" y2="1820" stroke-dasharray="100, 50" />
      <line x1="1820" x2="1820" y1="0" y2="1820" />
    </g>
    <g id="base-bottom-right" transform="translate(3640, 3640)">
      <line x1="1780" x2="1780" y1="0" y2="1780" />
      <line x1="1800" x2="1800" y1="0" y2="1800" stroke-dasharray="100, 50" />
      <line x1="1820" x2="1820" y1="0" y2="1820" />
      <line x1="0" x2="1780" y1="1780" y2="1780" />
      <line x1="0" x2="1800" y1="1800" y2="1800" stroke-dasharray="100, 50" />
      <line x1="0" x2="1820" y1="1820" y2="1820" />
    </g>
  </g>
</svg>

